<mxfile host="app.diagrams.net" modified="2024-05-14T03:34:10.955Z" agent="Mozilla/5.0 (Windows NT 10.0; Win64; x64) AppleWebKit/537.36 (KHTML, like Gecko) Chrome/124.0.0.0 Safari/537.36 Edg/124.0.0.0" version="24.4.0" etag="QGqhNRiOV7skNQ9kFD2v" type="github">
  <diagram name="第 1 页" id="-AbRPif0lCL5DA_3Q1Ul">
    <mxGraphModel>
      <root>
        <mxCell id="0" />
        <mxCell id="1" parent="0" />
      </root>
    </mxGraphModel>
  </diagram>
</mxfile>
